<?xml version="1.0" encoding="UTF-8" standalone="no"?>
<!-- Created with Inkscape (http://www.inkscape.org/) -->

<svg
   width="210mm"
   height="297mm"
   viewBox="0 0 210 297"
   version="1.1"
   id="svg867"
   inkscape:version="1.2 (dc2aedaf03, 2022-05-15)"
   sodipodi:docname="skandy-logo.svg"
   xmlns:inkscape="http://www.inkscape.org/namespaces/inkscape"
   xmlns:sodipodi="http://sodipodi.sourceforge.net/DTD/sodipodi-0.dtd"
   xmlns="http://www.w3.org/2000/svg"
   xmlns:svg="http://www.w3.org/2000/svg">
  <sodipodi:namedview
     id="namedview869"
     pagecolor="#ffffff"
     bordercolor="#000000"
     borderopacity="0.25"
     inkscape:showpageshadow="2"
     inkscape:pageopacity="0.0"
     inkscape:pagecheckerboard="0"
     inkscape:deskcolor="#d1d1d1"
     inkscape:document-units="mm"
     showgrid="false"
     inkscape:zoom="0.52724989"
     inkscape:cx="309.15132"
     inkscape:cy="637.26899"
     inkscape:window-width="958"
     inkscape:window-height="1001"
     inkscape:window-x="953"
     inkscape:window-y="1080"
     inkscape:window-maximized="0"
     inkscape:current-layer="layer1" />
  <defs
     id="defs864" />
  <g
     inkscape:label="Layer 1"
     inkscape:groupmode="layer"
     id="layer1">
    <path
       style="fill:#2b0000;stroke-width:0.264583"
       id="path939"
       d="m 151.00142,141.65958 c 0.0158,-1.17176 0.008,-2.34369 0.005,-3.5155 -0.003,-0.81124 -0.005,-1.62248 -0.005,-2.43373 0.0181,-0.68902 -0.059,-1.37146 -0.52992,-1.89867 -1.23489,-0.82617 -2.12563,-1.59407 -3.51792,-1.12513 -0.68822,0.21059 -1.23985,0.66926 -1.73516,1.17431 -0.52923,0.5234 -1.00886,1.08614 -1.45324,1.68353 -0.39641,0.54039 -0.84362,1.04382 -1.38933,1.43601 -0.75022,0.41312 -1.64972,0.4042 -2.48471,0.44107 -0.88969,0.0531 -1.76828,0.0436 -2.62869,-0.20351 -0.63595,-0.25055 -2.27611,-1.04171 0.45577,0.37443 0.14468,0.075 -0.27495,-0.17566 -0.40465,-0.27432 -0.33492,-0.25478 -0.3534,-0.30491 -0.62319,-0.61064 -0.63424,-0.82585 -0.75253,-1.85508 -0.91415,-2.84949 -0.22814,-1.20279 -0.2997,-2.42459 -0.34707,-3.64537 -0.008,-1.12443 -0.0902,-2.25514 -0.003,-3.37761 0.11641,-0.98423 0.51894,-1.90288 0.92975,-2.79477 0.60424,-1.45179 1.50091,-2.70735 2.47862,-3.92471 1.1053,-1.28103 2.44507,-2.32121 3.84443,-3.25874 1.36875,-0.74144 2.79017,-1.41262 4.27608,-1.88379 1.17766,-0.46304 2.40618,-0.66716 3.66,-0.76462 1.6124,-0.12098 3.22547,-0.0426 4.83642,0.05 2.18758,0.0572 4.33886,0.47933 6.49386,0.81931 1.6699,0.29194 3.31577,0.70404 4.92199,1.24477 -0.29616,-0.26878 1.47404,0.73696 1.11226,0.53965 -0.41004,-0.22365 -0.79669,-0.49521 -1.22737,-0.67596 -0.17671,-0.0742 0.30837,0.22808 0.45481,0.35171 0.32017,0.27032 0.57604,0.5397 0.8715,0.836 0.77807,0.94424 1.39884,2.01716 1.81862,3.16477 0.54215,1.3718 0.73065,2.82344 0.84675,4.28224 0.0104,1.29483 0.19327,2.57509 0.30503,3.86229 0.0981,1.25247 0.11794,2.50867 0.1318,3.76426 0.0438,0.99977 0.0112,1.98657 -0.13964,2.97479 -0.11016,0.64591 -0.44982,1.03999 -0.95227,1.42203 -0.55864,0.48951 -1.22484,0.72838 -1.94281,0.86041 -0.69553,0.21035 -1.4085,0.32927 -2.13065,0.39401 -0.7194,0.0639 -1.42571,-0.13154 -2.10981,-0.33016 -0.64138,-0.1829 -2.13057,-0.87735 0.68755,0.51019 0.12134,0.0598 -0.21662,-0.16243 -0.31823,-0.25168 -0.28402,-0.24948 -0.31879,-0.31436 -0.55684,-0.60199 -0.49684,-0.5766 -0.73195,-1.29345 -1.01489,-1.98472 -0.16117,-0.59992 -0.47518,-1.07227 -0.9218,-1.49301 -1.07163,-0.81619 -2.15297,-1.55023 -3.4787,-1.35121 -0.60242,0.18348 -0.93009,0.53196 -1.13972,1.11307 -0.26565,0.64048 -0.38514,1.31922 -0.45851,2.00443 -0.0609,0.71366 -0.0612,1.43056 -0.0634,2.14626 -9e-5,0.71072 0.002,1.42144 0.003,2.13216 0.001,0.70966 0.001,1.41931 0.001,2.12897 0.002,0.58883 0.0619,1.22873 -0.32163,1.71571 -0.44258,0.27752 -0.94469,0.46671 -1.45586,0.5788 -0.62551,0.11897 -1.24144,0.13374 -1.86275,0.005 -0.78394,-0.27086 -3,-1.57069 0.10942,0.19651 -0.65731,-0.37949 -1.30957,-0.76789 -1.97194,-1.13847 -0.0824,-0.0461 -0.17392,-0.0738 -0.26088,-0.11074 0.50127,0.28547 2.00184,1.14751 1.50382,0.85641 -0.6515,-0.3808 -1.31939,-0.73364 -1.96428,-1.12554 -0.4964,-0.30168 1.00292,0.58742 1.51864,0.85472 0.0826,0.0428 -0.14288,-0.11913 -0.21432,-0.1787 -0.51161,-0.36343 -0.85481,-0.85868 -1.11628,-1.42031 0,0 -1.8421,-0.84511 -1.8421,-0.84511 v 0 c 0.23695,0.58045 0.55921,1.13881 1.08507,1.50254 0.81411,0.76692 -0.32812,-0.28092 2.1427,1.35552 0.48082,0.31845 -2.00143,-1.14686 -1.49617,-0.8688 0.66195,0.36429 1.30852,0.75592 1.96638,1.12756 0.081,0.0457 0.32961,0.17198 0.24972,0.12437 -0.49225,-0.29334 -0.99159,-0.57462 -1.48739,-0.86193 1.07523,0.62025 2.17926,1.38867 3.39291,1.75114 0.6384,0.10355 1.2797,0.061 1.91226,-0.0739 0.53922,-0.14168 1.08975,-0.34449 1.52728,-0.69615 0.40223,-0.53504 0.41724,-1.17818 0.39277,-1.82783 -8e-5,-0.70973 -1.9e-4,-1.41946 -0.001,-2.12919 -0.001,-0.71048 -0.003,-1.42096 -0.003,-2.13144 0.001,-0.70963 1e-4,-1.4203 0.054,-2.12835 0.0655,-0.67143 0.17435,-1.33733 0.43115,-1.96597 0.17123,-0.51924 0.47063,-0.80828 1.01989,-0.92164 0.30719,-0.0278 0.56377,-0.0256 0.86512,0.0563 0.0988,0.0269 0.37693,0.15333 0.29167,0.0966 -0.62488,-0.41581 -2.11466,-1.2362 -1.20366,-0.73221 0.47072,0.37644 0.81398,0.80609 0.95773,1.40441 0.27852,0.70221 0.5023,1.4374 0.98526,2.03424 0.88539,1.18915 2.23483,1.99904 3.66443,2.38187 0.70005,0.19478 1.42361,0.35129 2.15425,0.26862 0.72592,-0.0764 1.43903,-0.21417 2.14251,-0.41068 0.73725,-0.15993 1.41936,-0.4332 1.99261,-0.94011 0.52756,-0.41984 0.89305,-0.8733 1.03288,-1.55191 0.1614,-0.9955 0.22471,-1.986 0.17217,-2.99605 -0.0107,-1.26034 -0.0304,-2.52165 -0.12567,-3.77896 -0.11339,-1.28447 -0.29113,-2.56237 -0.2945,-3.85468 -0.11039,-1.47426 -0.2877,-2.94604 -0.82976,-4.33434 -0.40469,-1.17571 -1.03315,-2.26083 -1.78758,-3.24907 -1.36941,-1.40662 -2.85853,-2.39514 -4.72454,-3.09599 -1.62506,-0.53261 -3.28365,-0.95545 -4.97113,-1.23964 -2.15807,-0.34284 -4.31493,-0.74743 -6.50579,-0.80137 -1.60724,-0.081 -3.21638,-0.13154 -4.82333,-0.005 -1.26447,0.11376 -2.5016,0.34568 -3.69373,0.7983 -1.49745,0.49107 -2.93977,1.15953 -4.31448,1.92765 -1.41299,0.9535 -2.7645,2.01116 -3.87804,3.31195 -0.98211,1.23396 -1.88715,2.50661 -2.49352,3.97463 -0.41532,0.91571 -0.79768,1.86402 -0.94638,2.86409 -0.12026,1.12591 -0.0181,2.26488 -0.0212,3.39501 0.0444,1.2289 0.11173,2.45916 0.33854,3.67047 0.17517,1.01818 0.27017,2.08005 0.88157,2.95223 0.98898,1.27932 2.56578,1.9952 4.05771,2.54308 0.88028,0.20415 1.77133,0.21455 2.67125,0.15832 0.86611,-0.0472 1.78459,-0.0703 2.53995,-0.54763 0.5503,-0.41622 1.01676,-0.92788 1.4224,-1.48514 0.4428,-0.58595 0.9148,-1.14319 1.43657,-1.66016 0.48365,-0.4758 1.01289,-0.90606 1.67937,-1.09065 0.29226,-0.0753 0.57662,-0.13637 0.88085,-0.0894 0.70871,0.10952 1.90174,0.99073 -0.90617,-0.69642 0.54205,0.42368 0.60544,1.09059 0.5927,1.74586 -7.9e-4,0.80947 -0.002,1.61895 -0.005,2.42841 -0.004,1.17338 -0.0112,2.34686 0.005,3.52017 0,0 1.80929,0.92188 1.80929,0.92188 z" />
    <path
       style="fill:#2b0000;stroke-width:0.264583"
       id="path941"
       d="m 149.50959,140.07233 c -0.13133,1.19722 -0.31193,2.39844 -0.14568,3.59865 0,0 1.83252,0.89961 1.83252,0.89961 v 0 c -0.19183,-1.1839 0.0226,-2.36995 0.11231,-3.55633 0,0 -1.79915,-0.94193 -1.79915,-0.94193 z" />
    <path
       style="fill:#2b0000;stroke-width:0.264583"
       id="path947"
       d="m 148.25584,147.36395 c 1.19873,1.04393 2.41319,2.05823 3.71398,2.97354 1.9318,1.19373 3.86816,2.4715 6.09374,3.01909 1.4372,0.36093 2.92286,0.45298 4.3977,0.51958 1.41551,0.0827 2.82285,0.0583 4.22186,-0.17555 1.36912,-0.25808 2.58419,-0.86984 3.66608,-1.73135 0.89538,-0.76708 1.71397,-1.61403 2.47532,-2.51317 0.85528,-0.97123 1.51982,-2.07796 2.19086,-3.17816 0.72122,-1.23492 1.28835,-2.54771 1.63367,-3.93492 0.17942,-1.09601 0.36854,-2.19217 0.5031,-3.29516 0.10395,-1.02663 0.11878,-2.05908 0.13282,-3.08995 -10e-4,-1.23859 0.0468,-2.47644 -0.0226,-3.71362 -0.0906,-1.57182 -0.2593,-3.13586 -0.42396,-4.7011 -0.16418,-1.59186 -0.48116,-3.15879 -0.83205,-4.71804 -0.297,-1.21267 -0.62361,-2.41888 -1.0054,-3.60777 -0.19665,-0.70962 -0.50529,-1.34446 -1.02077,-1.86879 -0.96693,-0.86495 -2.21035,-1.3098 -3.37175,-1.83863 3.08936,1.92006 0.62654,0.26173 -0.0289,-0.26991 -0.92302,-0.86128 -2.02348,-1.35777 -3.13176,-1.98384 -0.10153,-0.0574 -0.40535,-0.23079 -0.30376,-0.17353 0.48932,0.2758 0.97798,0.55278 1.46698,0.82917 -0.86452,-0.56693 -1.79179,-1.03206 -2.66966,-1.57574 -0.48126,-0.29807 0.98223,0.56332 1.47988,0.83315 0.19356,0.10495 -0.36781,-0.24213 -0.55094,-0.36437 -1.10679,-0.71814 -2.22323,-1.44163 -3.4277,-1.9849 0.20827,0.0937 -0.84798,-0.43571 -0.64386,-0.31229 0.48398,0.29266 1.962,1.12626 1.47416,0.8401 -0.98418,-0.5773 -1.71355,-0.98473 -2.63511,-1.45649 -0.79102,-0.31322 -1.55694,-0.65615 -2.30117,-1.06875 -1.43426,-0.61831 -2.89005,-1.19264 -4.3604,-1.72048 -1.28196,-0.46024 -2.59643,-0.83766 -3.91628,-1.17519 -1.19832,-0.22985 -2.34053,-0.66789 -3.50258,-1.0278 -1.75532,-0.36591 -3.4929,-0.79941 -5.21871,-1.28499 -2.36531,-0.64943 -4.70988,-1.3804 -7.05023,-2.11598 -1.44724,-0.41194 -2.84617,-0.97403 -4.29713,-1.37177 -1.00383,-0.316113 -2.04038,-0.508557 -3.03946,-0.839374 -0.83399,-0.25817 -1.65891,-0.563848 -2.451,-0.933108 -0.65595,-0.313413 -1.33381,-0.572389 -2.00126,-0.858682 0,0 1.62632,1.28352 1.62632,1.28352 v 0 c 0.67218,0.277146 1.33928,0.562753 2.00053,0.865296 0.80466,0.35383 1.63217,0.664478 2.47306,0.919718 1.01081,0.31133 2.0474,0.52826 3.05707,0.84447 1.46961,0.43286 2.89678,0.99669 4.36584,1.43248 2.33688,0.7384 4.67526,1.48381 7.04645,2.10368 1.70485,0.46894 3.42424,0.86627 5.15139,1.24204 1.16502,0.37162 2.32116,0.78146 3.52138,1.02888 1.31477,0.34732 2.62733,0.71945 3.90331,1.19087 1.45173,0.53949 2.89781,1.10134 4.3154,1.72466 0.74144,0.3971 1.51465,0.70851 2.284,1.04585 0.19463,0.0955 0.769,0.39967 0.58299,0.2883 -0.48787,-0.2921 -1.97293,-1.13168 -1.476,-0.85527 0.90803,0.50509 1.7614,1.06235 2.7007,1.49154 0.65128,0.32032 1.92311,1.05286 -0.90806,-0.5758 -0.7813,-0.44945 1.48777,1.00871 0.81042,0.52831 1.06899,0.73289 4.58817,2.67843 1.13962,0.73519 -0.20466,-0.11532 0.77391,0.49332 0.59739,0.37385 0.68544,0.40478 1.36896,0.81284 2.05632,1.21433 0.10291,0.0601 0.41604,0.23247 0.31431,0.17039 -0.47121,-0.28756 -0.94737,-0.56695 -1.42308,-0.84702 -0.11686,-0.0688 0.23488,0.1362 0.34651,0.2132 0.2734,0.18858 0.42266,0.33287 0.67244,0.55227 1.09832,0.91407 2.27937,1.68216 3.56418,2.32636 0.30293,0.14125 0.60503,0.27268 0.91405,0.3992 0.0844,0.0346 0.32828,0.15786 0.25076,0.10974 -2.04568,-1.26997 -1.9157,-1.18587 -1.29796,-0.73742 0.13073,0.13176 0.28189,0.24373 0.40228,0.385 0.3255,0.38191 0.45502,0.92161 0.62194,1.37978 0.38106,1.17447 0.6676,2.37875 0.9789,3.57302 0.33645,1.55238 0.6578,3.10735 0.82828,4.68889 0.1575,1.56714 0.35048,3.12943 0.44623,4.7024 0.0824,1.23601 0.0527,2.47676 0.0588,3.71517 -0.006,1.02391 -0.0284,2.04841 -0.12872,3.06818 -0.11126,1.095 -0.33084,2.17673 -0.50588,3.26257 -0.3349,1.36907 -0.92164,2.6472 -1.609,3.87566 -0.65579,1.09673 -1.3122,2.19467 -2.16214,3.15656 -0.74846,0.89179 -1.5538,1.73299 -2.45429,2.47388 -1.07929,0.813 -2.26616,1.40969 -3.61038,1.64124 -1.39628,0.21007 -2.80074,0.20624 -4.20935,0.13083 -1.45989,-0.0752 -2.92964,-0.17947 -4.35142,-0.54023 -0.65123,-0.18297 -1.26348,-0.40295 -1.87627,-0.69385 -0.25681,-0.12191 -0.97843,-0.56781 -0.76138,-0.38422 0.0666,0.0563 2.35458,1.39016 0.22624,0.13137 -1.34115,-0.92823 -2.59311,-1.95805 -3.83457,-3.01354 0,0 -1.89239,-0.75257 -1.89239,-0.75257 z" />
    <path
       style="fill:#2b0000;stroke-width:0.264583"
       id="path949"
       d="m 147.26321,147.48509 c -0.80335,0.20678 -1.55627,0.55526 -2.33009,0.84801 -0.77113,0.32765 -1.5491,0.64958 -2.34898,0.90101 -0.70957,0.20268 -1.40857,0.41462 -2.14046,0.52266 -0.8081,0.1679 -1.58379,0.44193 -2.3572,0.7235 -0.72093,0.2692 -1.48092,0.36309 -2.2435,0.41121 -0.79646,0.0301 -1.59398,0.0229 -2.3909,0.0222 -1.03571,-0.003 -2.07139,-0.0142 -3.1071,-0.0161 -1.16747,0.009 -2.33489,-0.001 -3.50235,-0.002 -1.26833,-0.006 -2.53667,0.003 -3.80501,0.003 -1.48244,-0.0815 -2.94982,-0.31375 -4.38767,-0.67874 -1.50932,-0.50472 -3.02059,-0.9988 -4.4945,-1.60053 -1.34016,-0.55809 -2.69114,-1.08337 -4.00503,-1.70292 -1.32209,-0.5265 -2.60079,-1.15105 -3.89799,-1.73367 -0.29689,-0.17567 -0.61197,-0.31722 -0.91402,-0.48313 -0.13116,-0.072 -0.52058,-0.29519 -0.3879,-0.22598 2.26298,1.18048 1.48086,0.82904 0.70154,0.19878 -0.73608,-0.61724 -1.45556,-1.25033 -2.13685,-1.92775 -0.65318,-0.64743 -1.28272,-1.31695 -1.88433,-2.01242 -0.4454,-0.48764 -0.73394,-1.11183 -1.24804,-1.53298 -0.671141,-0.34116 -1.315471,-0.74121 -2.013425,-1.02349 -0.169736,-0.0686 -1.564691,0.80387 -1.766533,0.92546 -0.896581,0.69987 -1.802654,1.38153 -2.751688,2.00907 -0.953963,0.59336 -1.876518,1.22304 -2.921032,1.64805 -0.547388,0.2344 -0.275889,0.12434 -0.814094,0.33117 0,0 1.721498,1.15656 1.721498,1.15656 v 0 c 0.545402,-0.21033 0.271048,-0.1002 0.822849,-0.33091 1.056214,-0.43823 2.007132,-1.06518 2.979963,-1.66026 0.93277,-0.63746 1.803701,-1.35013 2.709264,-2.02413 0.372335,-0.22511 0.744593,-0.46544 1.127805,-0.67149 0.08974,-0.0482 0.180554,-0.0975 0.278165,-0.12667 0.07957,-0.0238 0.313268,0.0199 0.247288,-0.0305 -0.475119,-0.36334 -1.016385,-0.63085 -1.52458,-0.94628 0.586552,0.29482 0.806532,1.01047 1.250315,1.46868 0.577165,0.71265 1.215405,1.37184 1.861395,2.02255 0.68062,0.68621 1.39477,1.3286 2.13504,1.94976 1.27071,1.04791 2.71658,1.85257 4.18045,2.59823 1.29562,0.59629 2.58761,1.19979 3.90675,1.74352 1.31934,0.61183 2.67415,1.13541 4.01523,1.69656 1.48207,0.59317 2.99446,1.10756 4.5188,1.58093 1.43967,0.34432 2.9078,0.57649 4.39007,0.61673 1.27139,5.3e-4 2.54279,0.009 3.81418,0.003 1.16636,-7.9e-4 2.33268,-0.0109 3.49904,-2.6e-4 1.02525,-2.7e-4 2.05048,-0.009 3.07574,-0.006 0.79829,0.002 1.59736,0.009 2.39468,-0.0377 0.77842,-0.0601 1.55155,-0.17413 2.28638,-0.45149 0.76104,-0.27567 1.52641,-0.54713 2.32409,-0.69805 0.73692,-0.12311 1.44554,-0.34088 2.16279,-0.54587 0.80198,-0.26184 1.58719,-0.57645 2.36386,-0.90503 0.76455,-0.29755 1.52031,-0.61627 2.30037,-0.87143 0,0 -1.69428,-1.13507 -1.69428,-1.13507 z" />
    <path
       style="fill:#2b0000;stroke-width:0.264583"
       id="path953"
       d="m 124.39441,97.435081 c 0.0275,-0.968023 0.0222,-1.93666 0.0181,-2.904963 0.0239,-1.028483 -0.19992,-2.03749 -0.44078,-3.030855 -0.39769,-1.364901 -0.86107,-2.709394 -1.3861,-4.030279 -0.49607,-1.250482 -1.17515,-2.402665 -1.9164,-3.519974 -0.76182,-1.065805 -1.81769,-1.838391 -2.87122,-2.590499 -1.40818,-1.077846 -2.90185,-2.031584 -4.38162,-3.005428 -2.06849,-1.231905 -4.13704,-2.511954 -6.40098,-3.354708 -1.31666,-0.501308 -2.6759,-0.865587 -4.07537,-1.025035 -1.06996,-0.09384 -2.14482,-0.08279 -3.217726,-0.0818 -0.930643,0.0049 -1.861296,0.01098 -2.791957,0.01077 -0.957154,-0.0016 -1.914311,0.004 -2.871462,0.0021 -0.845704,2.65e-4 -1.691405,0.003 -2.537108,0.0044 -0.849887,0.0024 -1.699734,-0.0049 -2.549626,-0.0043 -1.026374,0.01429 -2.053373,-0.03959 -3.077059,0.04212 -1.046059,0.09004 -2.08075,0.234821 -3.098408,0.494128 -0.950683,0.251442 -1.900579,0.501105 -2.850634,0.755399 -1.008002,0.259342 -2.015221,0.514249 -3.045794,0.665948 -1.058103,0.176184 -2.12026,0.318574 -3.181543,0.476589 -1.231942,0.166992 -2.449989,0.423153 -3.650295,0.744072 -0.979265,0.178786 -1.942986,0.401952 -2.895547,0.689903 -0.870593,0.187058 -1.738958,0.348994 -2.595991,0.594622 -0.919424,0.226764 -1.84432,0.434451 -2.76979,0.638802 -0.494687,0.06267 -0.969344,0.176618 -1.446917,0.315614 0,0 1.695482,1.162579 1.695482,1.162579 v 0 c 0.480666,-0.128844 0.966224,-0.212632 1.456806,-0.294828 0.929029,-0.20442 1.861979,-0.397042 2.779252,-0.64807 0.857531,-0.246584 1.734458,-0.378389 2.598852,-0.594969 0.954849,-0.278537 1.923923,-0.48247 2.898497,-0.678889 1.204158,-0.301114 2.42562,-0.530667 3.652888,-0.71573 1.057722,-0.160835 2.113327,-0.33239 3.172023,-0.484539 1.031285,-0.168751 2.040893,-0.429839 3.052643,-0.688681 0.949005,-0.255278 1.897219,-0.511765 2.850296,-0.751324 1.014658,-0.249087 2.04638,-0.378389 3.087801,-0.457084 1.015685,-0.0642 2.033265,-0.03865 3.050598,-0.04277 0.845982,5.29e-4 1.691921,-0.0066 2.537899,-0.0042 0.849816,0.0016 1.699628,0.0043 2.549443,0.0045 0.957464,-0.0021 1.914935,0.0032 2.872399,-0.0021 0.930788,-0.0047 1.861588,-0.0073 2.792388,-0.01005 1.07293,-7.94e-4 2.14759,0.01278 3.21661,0.112892 1.4045,0.184783 2.76039,0.597493 4.08426,1.096645 0.79365,0.310007 1.54568,0.65767 2.30122,1.051791 0.24639,0.128526 0.96216,0.552947 0.73627,0.391083 -0.34426,-0.246684 -0.72883,-0.431604 -1.09347,-0.647039 -0.25159,-0.148645 0.50289,0.297783 0.75434,0.446675 1.48134,0.982716 2.99427,1.920158 4.40428,3.006744 1.05881,0.745664 2.14425,1.484 2.93149,2.532874 0.7501,1.091973 1.4035,2.242828 1.91159,3.468698 0.53474,1.316821 0.99134,2.661187 1.42152,4.015507 0.25683,0.976318 0.50622,1.975859 0.47977,2.992324 -0.004,0.974437 -0.009,1.949188 0.0181,2.923352 0,0 1.82108,0.927889 1.82108,0.927889 z" />
    <path
       style="fill:#2b0000;stroke-width:0.264583"
       id="path955"
       d="m 61.392249,79.001222 c -0.813991,0.22995 -1.600605,0.554686 -2.37268,0.898893 -0.727528,0.339984 -1.405004,0.768178 -2.100453,1.167302 -1.28533,0.742762 -2.328479,1.800542 -3.225321,2.969075 -1.147765,1.492615 -2.203998,3.042382 -3.129698,4.681849 -0.767985,1.609754 -1.489176,3.238619 -2.274353,4.840693 -1.043636,1.758695 -1.89861,3.595256 -2.619137,5.506497 -0.716092,1.796229 -1.395672,3.603069 -2.037929,5.427079 -0.661199,1.81569 -1.315098,3.62191 -1.76081,5.50428 -0.613876,2.73493 -0.862285,5.53825 -1.084287,8.32769 -0.190957,2.61004 -0.230684,5.22771 -0.250052,7.84363 -0.01796,2.1403 0.0013,4.28054 0.01114,6.4208 0.0075,1.76276 0.0063,3.52553 0.0123,5.28829 0.0032,1.50287 0.0044,3.00579 0.01307,4.50865 -0.03289,1.14468 0.03332,2.27583 0.197582,3.40797 0.184354,1.60694 0.50677,3.18943 0.815584,4.77543 0.312515,1.74302 0.84872,3.43281 1.422598,5.10434 0.661128,1.58616 1.328312,3.18073 2.119863,4.70765 0.509373,1.07798 1.073843,2.12767 1.661517,3.16479 0.393401,0.74176 0.883748,1.4242 1.281999,2.16316 0.487614,0.74067 0.735092,1.58651 1.051938,2.40389 0.451811,1.10895 1.092521,2.1254 1.758133,3.11578 0.830696,1.16575 1.771536,2.2473 2.665505,3.36431 1.609722,1.91443 3.281164,3.77782 4.960281,5.63171 1.560304,1.72609 3.059332,3.51061 4.699971,5.16204 0.963028,0.88744 1.985949,1.70959 3.090598,2.41372 1.340488,0.87378 2.751386,1.55307 4.271539,2.02105 0.710957,0.30857 1.458545,0.47725 2.224879,0.56596 0.600413,0.18647 1.212617,0.3 1.837309,0.36033 0.932651,0.10911 1.572154,-0.64196 2.173692,-1.23981 1.005763,-1.25764 2.243,-2.25243 3.597397,-3.1049 1.286557,-0.72104 2.58885,-1.4316 3.945998,-2.01226 1.160108,-0.58499 2.297597,-1.22645 3.370681,-1.9596 1.069432,-0.6917 2.176327,-1.31838 3.299885,-1.91652 0.842452,-0.41472 1.693458,-0.81121 2.506994,-1.28126 0.797396,-0.54685 1.602893,-1.10539 2.324933,-1.75066 0.489082,-0.42949 0.973399,-0.87253 1.411227,-1.35503 0.38822,-0.50459 0.455964,-1.12982 0.505227,-1.74346 0.03453,-0.7641 0.04768,-1.5301 -7.94e-4,-2.29349 -0.188238,-1.37146 -0.720934,-2.66644 -1.213525,-3.95142 -0.388686,-0.98926 -0.792226,-1.97213 -1.178099,-2.96265 -0.414666,-0.91674 -0.869014,-1.81208 -1.278779,-2.73199 -0.665731,-1.33772 -1.437309,-2.62296 -2.221153,-3.89475 -0.787511,-1.34231 -1.604566,-2.66583 -2.503766,-3.9363 -0.897183,-1.2828 -1.83706,-2.53652 -2.813438,-3.7601 -0.812541,-1.10705 -1.717284,-2.13876 -2.594235,-3.19344 -0.649232,-0.80971 -1.274736,-1.63818 -1.915176,-2.45506 -0.670112,-0.72839 -1.209984,-1.55427 -1.792845,-2.35024 -0.848765,-1.17119 -1.59657,-2.4114 -2.35499,-3.6419 -0.991939,-1.6662 -1.73771,-3.45995 -2.621704,-5.18234 -0.801944,-1.55878 -1.438669,-3.19239 -2.032156,-4.83956 -0.514014,-1.43997 -0.952733,-2.90463 -1.372386,-4.37438 -0.277709,-1.12226 -0.648051,-2.22042 -0.851249,-3.35956 -0.125783,-1.14556 -0.245909,-2.29207 -0.436573,-3.42916 -0.19699,-1.33362 -0.448905,-2.65898 -0.61827,-3.9967 -0.157057,-1.35324 -0.176782,-2.71613 -0.181989,-4.07675 -0.03154,-1.75443 0.03358,-3.50327 0.153972,-5.253 0.105714,-1.03962 0.305125,-2.06009 0.643131,-3.04844 0.155413,-0.58021 0.435649,-1.10943 0.696777,-1.64593 0,0 -1.804747,-1.025725 -1.804747,-1.025725 v 0 c -0.268022,0.542835 -0.553677,1.079465 -0.712316,1.667875 -0.336624,0.99974 -0.581567,2.02116 -0.714354,3.06949 -0.158088,1.75437 -0.233963,3.5087 -0.161142,5.27064 0.02138,1.36922 0.03729,2.74106 0.182804,4.1041 0.162784,1.34469 0.413131,2.67563 0.626999,4.01261 0.205906,1.1362 0.321712,2.2863 0.445735,3.43354 0.193487,1.14007 0.545772,2.24175 0.812123,3.36593 0.424545,1.46559 0.837358,2.93469 1.341527,4.37564 0.597197,1.64781 1.223002,3.28658 2.003962,4.85747 0.897314,1.72835 1.63607,3.53803 2.642905,5.20966 0.765561,1.24288 1.530768,2.48849 2.383374,3.67414 0.596847,0.79501 1.130978,1.63526 1.810835,2.36475 0.64054,0.80732 1.246918,1.64033 1.887675,2.44725 0.853914,1.06374 1.783011,2.06717 2.573758,3.18228 0.974865,1.21637 1.916062,2.46153 2.802996,3.74355 0.915466,1.25671 1.743202,2.57004 2.509684,3.92279 0.791181,1.27402 1.577382,2.55626 2.269728,3.88618 0.420545,0.92158 0.867913,1.82521 1.312868,2.73399 0.366866,0.98507 0.759068,1.95956 1.132499,2.94205 0.491429,1.27914 1.020733,2.56277 1.272431,3.91464 0.08527,0.75655 0.0683,1.51708 0.04187,2.27749 -0.03531,0.5673 -0.06581,1.16064 -0.428638,1.62755 -0.444555,0.47039 -0.928335,0.90571 -1.423609,1.32162 -0.728948,0.62034 -1.516803,1.17911 -2.310995,1.71161 -0.814393,0.46839 -1.663748,0.86552 -2.512134,1.26796 -1.138841,0.58865 -2.256211,1.21649 -3.323106,1.92912 -1.073372,0.71471 -2.195073,1.36252 -3.357629,1.9214 -1.365265,0.59721 -2.694156,1.29007 -3.990316,2.0233 -1.360331,0.8699 -2.593631,1.88005 -3.578756,3.17366 -0.569408,0.59108 -1.133415,1.25366 -2.034945,1.10822 -0.624565,-0.0733 -1.229286,-0.22154 -1.839878,-0.36786 -0.761823,-0.1086 -1.495476,-0.31365 -2.209856,-0.60209 -0.77548,-0.26073 -3.916111,-1.66897 -0.689647,0.002 -1.098354,-0.66866 -2.090351,-1.49026 -3.048891,-2.34452 -1.624203,-1.62594 -3.06885,-3.42014 -4.617173,-5.11679 -1.706046,-1.86509 -3.387762,-3.75273 -5.050321,-5.65659 -0.915755,-1.10714 -1.851962,-2.20055 -2.70124,-3.35973 -0.6774,-0.98478 -1.336643,-1.98982 -1.813007,-3.0906 -0.337174,-0.81636 -0.549098,-1.68695 -1.050274,-2.42864 -0.394018,-0.73756 -0.870702,-1.42279 -1.262838,-2.16076 -0.58997,-1.02176 -1.135581,-2.06904 -1.62919,-3.14063 -0.783024,-1.51412 -1.433986,-3.09922 -2.102244,-4.66532 -0.579975,-1.66647 -1.138587,-3.34742 -1.458794,-5.08665 -0.289621,-1.59327 -0.639945,-3.17465 -0.843055,-4.78274 -0.199522,-1.11905 -0.268266,-2.23889 -0.208608,-3.37563 0.0087,-1.49855 0.0099,-2.99718 0.01241,-4.49574 0.0049,-1.75999 0.0021,-3.51996 0.0046,-5.27994 0.0044,-2.13358 0.01392,-4.26718 0.02294,-6.40073 0.03146,-2.60308 0.09659,-5.2062 0.294505,-7.80287 0.230021,-2.78696 0.438227,-5.59127 1.004276,-8.33384 0.415695,-1.8863 1.059509,-3.68651 1.722557,-5.49778 0.629446,-1.82519 1.343006,-3.61574 2.072817,-5.40244 0.704329,-1.912328 1.525204,-3.756265 2.572502,-5.509079 0.768413,-1.603714 1.499957,-3.224665 2.284314,-4.819835 0.913834,-1.633567 1.950715,-3.183207 3.085235,-4.672349 0.873903,-1.141153 1.895515,-2.184826 3.135246,-2.930437 0.673495,-0.41519 1.346557,-0.830869 2.068992,-1.15733 0.770871,-0.332383 1.561261,-0.614667 2.347915,-0.907354 0,0 -1.694278,-1.135073 -1.694278,-1.135073 z" />
    <path
       style="fill:#2b0000;stroke-width:0.264583"
       id="path963"
       d="m 91.014419,142.78309 c -0.325009,0.0423 -0.616347,0.1798 -0.906084,0.32355 -0.250822,0.12812 -0.478806,0.29304 -0.71337,0.44813 -0.186375,0.13227 -0.408479,0.19445 -0.602757,0.3114 -0.199134,0.0807 -0.40281,0.14673 -0.606002,0.21657 -0.211214,0.0931 -0.430869,0.15335 -0.6345,0.26347 -0.191098,0.10742 -0.401042,0.16856 -0.609396,0.23153 -0.244721,0.0531 -0.490133,0.10202 -0.736042,0.1479 -0.274431,0.0569 -0.550323,0.0945 -0.829156,0.12069 -0.242936,0.024 -0.487239,0.0249 -0.7311,0.0287 -0.227182,0.002 -0.454329,-0.003 -0.681527,-0.002 -0.220903,-5.3e-4 -0.44179,2.5e-4 -0.662699,0.002 -0.185354,0.002 -0.370718,0.002 -0.55608,0.003 -0.177213,2.4e-4 -0.354423,2.1e-4 -0.531635,2e-4 -0.116724,-0.0113 -0.238199,0.0147 -0.354478,-2e-5 -0.04691,-0.006 -0.09086,-0.0263 -0.136491,-0.0387 -0.144026,-0.0916 -0.31392,-0.11278 -0.480182,-0.12851 -0.112191,-0.042 -0.230211,-0.0611 -0.348234,-0.0775 0,0 1.646529,1.24074 1.646529,1.24074 v 0 c 0.116147,0.025 0.23096,0.0579 0.349239,0.0714 0.160393,0.0334 0.308653,0.10145 0.468863,0.13218 0.17294,0.0229 0.348094,0.007 0.522121,0.0118 0.177395,-1e-5 0.354793,-4e-5 0.532188,1.9e-4 0.187878,2.7e-4 0.375756,0.001 0.563626,0.003 0.223226,0.002 0.446437,0.003 0.669658,0.003 0.22669,0.002 0.453329,-0.002 0.680011,-0.002 0.254635,-2.7e-4 0.509262,-0.007 0.762981,-0.03 0.278559,-0.0309 0.551257,-0.0901 0.825201,-0.1478 0.25137,-0.0536 0.511048,-0.0736 0.752412,-0.16832 0.211465,-0.0779 0.424741,-0.15386 0.624737,-0.25866 0.199456,-0.095 0.409696,-0.16246 0.615473,-0.24221 0.20846,-0.0739 0.418616,-0.1467 0.617162,-0.24469 0.215321,-0.0934 0.426641,-0.19425 0.626057,-0.31893 0.23449,-0.14552 0.461902,-0.30442 0.717807,-0.41154 0.268883,-0.11714 0.540512,-0.22661 0.817165,-0.32427 0,0 -1.671497,-1.16471 -1.671497,-1.16471 z" />
    <path
       style="fill:#2b0000;stroke-width:0.264583"
       id="path965"
       d="m 92.008231,106.71556 c 0.213236,-0.58719 0.389758,-1.18621 0.590243,-1.77743 0.247388,-0.58622 0.491816,-1.1749 0.812956,-1.72516 0.302887,-0.52162 0.600052,-1.05734 0.989516,-1.51975 0.541292,-0.46762 1.170656,-0.80196 1.843505,-1.03416 0.36041,-0.0706 0.752856,-0.21635 1.127448,-0.18296 0.07955,0.007 0.508309,0.13371 0.576934,0.15332 -0.292121,-0.22924 1.526278,0.74343 1.171073,0.54196 -1.4262,-0.8089 -2.006897,-1.1672 -1.158304,-0.64975 0.659575,0.39985 1.2802,0.84917 1.853184,1.36478 0.500964,0.43554 0.908584,0.94517 1.201994,1.53868 0,0 1.89098,0.85894 1.89098,0.85894 v 0 c -0.28547,-0.60826 -0.64306,-1.16058 -1.15718,-1.60557 -0.5665,-0.52945 -1.17206,-0.99879 -1.835972,-1.40205 -1.164841,-0.70625 -2.30637,-1.494004 -3.613983,-1.908182 -0.605989,-0.134716 -1.19171,-0.07087 -1.78185,0.124558 -0.702098,0.254042 -1.358728,0.610754 -1.901293,1.132044 -0.382564,0.48214 -0.695725,1.0173 -1.003446,1.5495 -0.326424,0.56157 -0.587001,1.15715 -0.834149,1.75726 -0.222628,0.59553 -0.391961,1.21293 -0.568264,1.82343 0,0 1.796608,0.96054 1.796608,0.96054 z" />
    <path
       style="fill:#2b0000;stroke-width:0.264583"
       id="path967"
       d="m 110.31006,103.12814 c 0.0998,-0.69765 0.23687,-1.39964 0.4858,-2.06059 0.28807,-0.62969 0.6499,-1.231457 1.0899,-1.766677 0.37915,-0.390467 0.8399,-0.683956 1.33986,-0.892966 0.64908,-0.213067 1.32879,-0.307242 2.00535,-0.382749 0.68512,-0.09184 1.34396,-0.02035 1.9902,0.215683 0.6267,0.366263 2.0149,0.998498 -0.88382,-0.501857 -0.10431,-0.05399 0.18939,0.139079 0.28141,0.212072 0.27441,0.217659 0.2653,0.2204 0.51142,0.459084 0.42463,0.404228 0.68211,0.888915 0.81211,1.453771 0.0487,0.327719 0.0291,0.163329 0.0588,0.493169 0,0 1.84412,0.92153 1.84412,0.92153 v 0 c -0.023,-0.34327 -0.008,-0.17148 -0.0466,-0.51537 -0.10543,-0.58876 -0.31465,-1.12211 -0.74648,-1.553828 -0.94092,-1.025668 -2.21949,-1.680073 -3.47714,-2.246159 -0.67021,-0.195723 -1.35154,-0.244888 -2.04536,-0.144876 -0.68804,0.08012 -1.37568,0.188577 -2.0233,0.445818 -0.52103,0.238342 -1.00256,0.552889 -1.40036,0.969248 -0.45703,0.551466 -0.84997,1.159597 -1.13192,1.819777 -0.26869,0.68189 -0.43598,1.41314 -0.49164,2.14372 0,0 1.8276,0.9312 1.8276,0.9312 z" />
    <path
       style="fill:#2b0000;stroke-width:0.264583"
       id="path969"
       d="m 138.44966,152.23927 c 0.5825,0.33337 1.98771,0.81428 -0.63571,-0.39951 -0.1997,-0.0924 0.36721,0.2428 0.5457,0.3715 0.50266,0.36245 0.50819,0.38843 0.96229,0.7947 0.89576,0.84412 1.4045,1.93963 1.7859,3.08802 0.36682,1.06242 0.526,2.17529 0.75327,3.27116 0.2864,1.25959 0.45615,2.53896 0.74188,3.7985 0.36662,1.54461 0.97183,3.0112 1.62824,4.45115 0.56003,1.11346 1.15849,2.19849 1.6468,3.34638 0.38081,0.84311 0.79764,1.66203 1.29685,2.44072 0.5302,0.78172 1.14076,1.50486 1.74913,2.22604 0.68325,0.7637 1.38507,1.50975 2.1191,2.22483 0.56348,0.4759 1.1199,0.95799 1.66648,1.45297 0.51946,0.51698 1.15236,0.87958 1.7606,1.27698 1.36424,1.04001 2.74308,1.54488 4.31397,2.02693 1.04912,0.36995 2.14358,0.52696 3.24674,0.6161 0.9609,-0.003 1.95901,-0.0228 2.82846,-0.46856 0.63701,-0.52364 0.93131,-1.32877 1.17744,-2.0928 0.20299,-0.73465 0.34254,-1.48048 0.42211,-2.23789 0.0705,-0.75374 0.0708,-1.51103 0.082,-2.26718 0.005,-0.94902 0.003,-1.89805 0.006,-2.84706 -2.7e-4,-1.23785 0.0246,-2.47541 0.0172,-3.71333 0.0287,-1.29786 -0.0538,-2.59287 -0.17975,-3.88376 -0.15623,-1.50796 -0.35667,-3.01009 -0.5877,-4.5082 -0.19901,-1.27865 -0.572,-2.50997 -1.03562,-3.71348 -0.30873,-0.85716 -0.67061,-1.69404 -1.01789,-2.53602 -0.24391,-0.6081 -0.47998,-1.21915 -0.7425,-1.81957 0,0 -1.89459,-0.86787 -1.89459,-0.86787 v 0 c 0.26559,0.59197 0.48007,1.20427 0.72604,1.8044 0.3338,0.84384 0.70681,1.67244 1.0119,2.52767 0.43393,1.18094 0.78108,2.38445 0.96839,3.63314 0.24852,1.50224 0.46949,3.00742 0.63991,4.5209 0.14484,1.28085 0.21018,2.57076 0.18264,3.85984 -0.007,1.24426 0.0179,2.48813 0.0196,3.73231 0.006,0.95149 0.007,1.90301 0.0105,2.85451 0.005,0.75191 0.0125,1.50658 -0.0559,2.25602 -0.0832,0.7425 -0.213,1.47546 -0.40217,2.19889 -0.23434,0.69696 -0.49364,1.48356 -1.09318,1.94493 -0.87798,0.37216 -1.86586,0.37132 -2.80563,0.34918 -1.08823,-0.0975 -2.15993,-0.27834 -3.19704,-0.63479 -0.44497,-0.13472 -0.89361,-0.25668 -1.32593,-0.4294 -0.66955,-0.26751 -2.17768,-1.14398 0.63112,0.45811 -0.59597,-0.41675 -1.26081,-0.73444 -1.77943,-1.25601 -0.55076,-0.4703 -1.06022,-0.98817 -1.63653,-1.42989 -0.73935,-0.7106 -1.43105,-1.46574 -2.13705,-2.20888 -0.60273,-0.71859 -1.20548,-1.43765 -1.75358,-2.19999 -0.50412,-0.76078 -0.93474,-1.5504 -1.28676,-2.39478 -0.47989,-1.14128 -1.04352,-2.23368 -1.6072,-3.33521 -0.65647,-1.42645 -1.25006,-2.88868 -1.64529,-4.4113 -0.30817,-1.2649 -0.49933,-2.54944 -0.79132,-3.81801 -0.24618,-1.09308 -0.35818,-2.21582 -0.72392,-3.28088 -0.37003,-1.17384 -0.86608,-2.30203 -1.74547,-3.19066 -1.2806,-1.21871 -2.83062,-2.16797 -4.46347,-2.84145 0,0 1.60308,1.2606 1.60308,1.2606 z" />
    <path
       style="fill:#2b0000;stroke-width:0.264583"
       id="path971"
       d="m 148.65513,148.24366 c 0.0718,0.7673 0.38968,1.47779 0.66871,2.18662 0.37483,1.01588 0.76896,2.02544 1.19758,3.01997 0.3562,0.83087 0.6586,1.68606 1.03695,2.50716 0,0 1.90217,0.86624 1.90217,0.86624 v 0 c -0.38724,-0.80869 -0.64085,-1.67529 -1.01732,-2.48992 -0.42096,-0.9966 -0.79504,-2.01316 -1.20228,-3.01512 -0.2793,-0.71721 -0.62688,-1.41997 -0.75269,-2.18606 0,0 -1.83312,-0.88889 -1.83312,-0.88889 z" />
    <path
       style="fill:#2b0000;stroke-width:0.264583"
       id="path973"
       d="m 116.32934,149.76056 c 0.61326,0.908 1.43397,1.64797 2.23183,2.38913 1.17712,1.18408 2.64608,1.89272 4.08801,2.71231 1.00746,0.5286 2.08065,0.89114 3.17658,1.18347 1.34715,0.30339 2.68908,0.64073 4.04951,0.88072 1.38885,0.36232 2.80922,0.56302 4.23677,0.68792 0.95925,0.0731 1.9218,0.0786 2.88328,0.0838 0.94651,-5.3e-4 1.89302,-0.005 2.83954,-0.005 0.73254,10e-4 1.45948,0.0174 2.18382,-0.0978 0.0922,-0.0147 0.18435,-0.0295 0.27652,-0.0442 0,0 -1.69149,-1.19033 -1.69149,-1.19033 v 0 c -0.0928,0.0134 -0.18559,0.0268 -0.27839,0.0402 -0.73154,0.0907 -1.46669,0.043 -2.2023,0.0488 -0.94673,0.002 -1.89346,0.005 -2.84018,0.004 -0.96759,-0.002 -1.93608,-0.0155 -2.89919,-0.12015 -1.4266,-0.1525 -2.84371,-0.37795 -4.23988,-0.71244 -1.35083,-0.25126 -2.68737,-0.57851 -4.02598,-0.88671 -1.07179,-0.30109 -2.12462,-0.66225 -3.10917,-1.18984 3.20941,1.89249 0.0737,0.12382 -0.45869,-0.57872 -0.82019,-0.76159 -1.65634,-1.51576 -2.35032,-2.39833 0,0 -1.87027,-0.80597 -1.87027,-0.80597 z" />
    <path
       style="fill:#2b0000;stroke-width:0.264583"
       id="path975"
       d="m 94.245381,160.74382 c -0.0061,-1.1644 0.269362,-2.30158 0.651695,-3.39375 0.647068,-1.39613 1.657972,-2.59455 2.580572,-3.81665 1.168209,-1.6585 2.486906,-3.1946 3.900312,-4.64668 0.96612,-0.89639 1.76445,-1.9538 2.69175,-2.88545 0.38109,-0.33145 0.71456,-0.7076 1.08114,-1.05435 0,0 -1.75207,-1.08046 -1.75207,-1.08046 v 0 c -0.3683,0.34791 -0.71048,0.71942 -1.0888,1.05677 -0.93165,0.93239 -1.76011,1.96772 -2.731226,2.86352 -1.42912,1.45049 -2.770455,2.98429 -3.9287,4.66301 -0.9174,1.25113 -1.908352,2.48596 -2.569083,3.89596 -0.395708,1.11343 -0.69837,2.28238 -0.650163,3.47351 0,0 1.814573,0.92457 1.814573,0.92457 z" />
  </g>
</svg>
